{"title":"Odd Thomas 2013 BRRip 480p x264 AAC - VYTO [P2PDL]","uid":9088507,"size":340399842,"categoryP":"video","categoryS":"movies","magnet":"?xt=urn:btih:4ab5bd6d6ec09e1d53196547095d6f373e66777a&amp;dn=Odd+Thomas+2013+BRRip+480p+x264+AAC+-+VYTO+%5BP2PDL%5D&amp;tr=udp%3A%2F%2Ftracker.openbittorrent.com%3A80&amp;tr=udp%3A%2F%2Fopen.demonii.com%3A1337&amp;tr=udp%3A%2F%2Ftracker.coppersurfer.tk%3A6969&amp;tr=udp%3A%2F%2Fexodus.desync.com%3A6969","seeders":1,"leechers":1,"uploader":"Vitamin_X","files":-1,"time":1382544371,"description":"_______ Visit us at our Semi Public Bittorrent Community ________\n  &lt;a href=&quot;\nhttp://p2pdl.com&quot; rel=&quot;nofollow&quot; target=&quot;_NEW&quot;&gt;\nhttp://p2pdl.com&lt;/a&gt;  _____________________________ &lt;a href=&quot; http://p2pdl.com&quot; rel=&quot;nofollow&quot; target=&quot;_NEW&quot;&gt; http://p2pdl.com&lt;/a&gt;\n\n\nOdd Thomas 2013 BRRip 480p x264 AAC - VYTO\n\n\nGenre: Mystery | Thriller \nPlot: In a California desert town, a short-order \ncook with clairvoyant abilities encounters \na mysterious man with a link to dark, threatening forces.\nDirector: Stephen Sommers\nStars: Anton Yelchin, Ashley Sommers, Leonor Varela\nRated: N/A\n\nIMDb: &lt;a href=&quot;\nhttp://www.imdb.com/title/tt0770828/&quot; rel=&quot;nofollow&quot; target=&quot;_NEW&quot;&gt;\nhttp://www.imdb.com/title/tt0770828/&lt;/a&gt;\n\n\nGeneral\nFormat                         : MPEG-4\nFile size                      : 322 MiB\nDuration                       : 1h 36mn\nOverall bit rate mode          : Variable\nOverall bit rate               : 465 Kbps\n\nVideo\nFormat                         : AVC\nBit rate                       : 422 Kbps\nWidth                          : 720 pixels\nHeight                         : 304 pixels\nDisplay aspect ratio           : 2.35:1\nFrame rate mode                : Constant\nFrame rate                     : 23.976 fps\nBit depth                      : 10 bits\nStream size                    : 292 MiB (91%)\nWriting library                : x264 core 138 r2358 9e941d1\n\nAudio\nFormat                         : AAC\nBit rate                       : 40.0 Kbps\nChannel(s)                     : 2 channels\nChannel positions              : Front: L R\nSampling rate                  : 48.0 KHz / 24.0 KHz\nStream size                    : 27.6 MiB (9%)\nLanguage                       : English\n\nSubtitle                       : No\n\nSource                         : 720p.BluRay.x264-HDNORDiC\n\nScreenshots:\n &lt;a href=&quot;\nhttp://ultraimg.com/images/oEkjH.png&quot; rel=&quot;nofollow&quot; target=&quot;_NEW&quot;&gt;\nhttp://ultraimg.com/images/oEkjH.png&lt;/a&gt; &lt;a href=&quot;\nhttp://ultraimg.com/images/gWU.png&quot; rel=&quot;nofollow&quot; target=&quot;_NEW&quot;&gt;\nhttp://ultraimg.com/images/gWU.png&lt;/a&gt; &lt;a href=&quot;\nhttp://ultraimg.com/images/Xatri.png&quot; rel=&quot;nofollow&quot; target=&quot;_NEW&quot;&gt;\nhttp://ultraimg.com/images/Xatri.png&lt;/a&gt; &lt;a href=&quot;\nhttp://ultraimg.com/images/Kian7.png&quot; rel=&quot;nofollow&quot; target=&quot;_NEW&quot;&gt;\nhttp://ultraimg.com/images/Kian7.png&lt;/a&gt; &lt;a href=&quot;\nhttp://ultraimg.com/images/do1q.png&quot; rel=&quot;nofollow&quot; target=&quot;_NEW&quot;&gt;\nhttp://ultraimg.com/images/do1q.png&lt;/a&gt;\n\n----------------------------------------------------------------------------------------------------\n\n\nEncoded using revolutionary 10bit encoding, which enables us to provide you more crispier \nand sharper images at small sizes, just make sure you follow our instructions without a fault.\nRecommend to you to use latest version of VLC player. Install K-Lite Codec Pack or shark007 codecs\nin case of any kind of problem in playback (For non-VLC Media Player users). Alternatively, install\nCore AVC codecs, the fastest decoder that there is coupled with Community Center Codec Pack and play\non Windows Media Player Classic. Check sample to be sure.\nEnjoy!\n\nEncoder Notes:Looking For Early Access To Anything You Can Provide DVDScr, R5, DVDR, BluRay, Direct\nAudio, Music Releases and Seedboxes. We require dedicated servers, so as to do more \nand fast releases of movies.\nIf You Got anything to offer please contact us at &quot;&lt;a class=&quot;__cf_email__&quot; href=&quot;/cdn-cgi/l/email-protection&quot; data-cfemail=&quot;7a0a081d3a120f091254191517&quot;&gt;[email&amp;#160;protected]&lt;/a&gt;&lt;script cf-hash='f9e31' type=&quot;text/javascript&quot;&gt;\n/* &lt;![CDATA[ */!function(){try{var t=&quot;currentScript&quot;in document?document.currentScript:function(){for(var t=document.getElementsByTagName(&quot;script&quot;),e=t.length;e--;)if(t[e].getAttribute(&quot;cf-hash&quot;))return t[e]}();if(t&amp;&amp;t.previousSibling){var e,r,n,i,c=t.previousSibling,a=c.getAttribute(&quot;data-cfemail&quot;);if(a){for(e=&quot;&quot;,r=parseInt(a.substr(0,2),16),n=2;a.length-n;n+=2)i=parseInt(a.substr(n,2),16)^r,e+=String.fromCharCode(i);e=document.createTextNode(e),c.parentNode.replaceChild(e,c)}}}catch(u){}}();/* ]]&gt; */&lt;/script&gt;&quot;.\n\nFacebook Fan Page:  \nSearch P2PDL on FB and hit like!!!\n\n\nFor more of our team uploads visit @                                             &lt;a href=&quot; http://thepiratebay.se/user/varuttee&quot; rel=&quot;nofollow&quot; target=&quot;_NEW&quot;&gt; http://thepiratebay.se/user/varuttee&lt;/a&gt;\t","torrent":{"xt":"urn:btih:4ab5bd6d6ec09e1d53196547095d6f373e66777a","amp;dn":"Odd+Thomas+2013+BRRip+480p+x264+AAC+-+VYTO+%5BP2PDL%5D","amp;tr":["udp%3A%2F%2Ftracker.openbittorrent.com%3A80","udp%3A%2F%2Fopen.demonii.com%3A1337","udp%3A%2F%2Ftracker.coppersurfer.tk%3A6969","udp%3A%2F%2Fexodus.desync.com%3A6969"],"infoHash":"4ab5bd6d6ec09e1d53196547095d6f373e66777a","infoHashBuffer":{"type":"Buffer","data":[74,181,189,109,110,192,158,29,83,25,101,71,9,93,111,55,62,102,119,122]},"announce":[],"urlList":[]}}